# xmcd
#
# Track frame offsets:
#	150
#	8344
#	22959
#	39247
#	46698
#	57121
#	82775
#	98523
#	107922
#	119046
#	137898
#	152678
#	170815
#
# Disc length: 2407 seconds
#
# Revision: 2
# Processed by: cddbd v1.5.2PL0 Copyright (c) Steve Scherf et al.
# Submitted via: EasyCDDAExtractor 9.0.0.1
#
DISCID=9209650d
DTITLE=Jorge Senno - Barraca Peña
DYEAR=2001
DGENRE=Blues Argentino
TTITLE0=Blues de la ribera
TTITLE1=Barraca Peña Blues
TTITLE2=Inseguridad
TTITLE3=Eliseo blues
TTITLE4=Ruta 25
TTITLE5=Saint Louis Blues
TTITLE6=Blues de la amenaza nocturna
TTITLE7=You got the pocketbook, I got the key
TTITLE8=Sudestada blues
TTITLE9=Sangre sobre el diapasón
TTITLE10=La luz del tren
TTITLE11=Conduciendo por Berlín Oriental
TTITLE12=Poor boy, long ways from home
EXTD=
EXTT0=
EXTT1=
EXTT2=
EXTT3=
EXTT4=
EXTT5=
EXTT6=
EXTT7=
EXTT8=
EXTT9=
EXTT10=
EXTT11=
EXTT12=
PLAYORDER=
